<svg width="577" height="793" viewBox="0 0 577 793" fill="none" xmlns="http://www.w3.org/2000/svg">
<path d="M270.066 0.414062C268.285 0.654785 264.842 0.895508 262.526 0.955688C260.152 1.01587 257.065 1.25659 255.699 1.61768C254.274 1.91858 251.306 2.46027 248.99 2.76117C238.898 4.20551 232.842 5.28876 228.805 6.43219C227.499 6.79327 225.124 7.3349 223.462 7.6358C217.822 8.65887 213.251 9.98291 210.579 11.3069C209.986 11.6078 208.857 11.8485 208.086 11.8485C207.255 11.8485 206.008 12.0892 205.236 12.3901C204.464 12.691 202.268 13.4132 200.308 14.015C196.924 14.9779 196.212 15.2788 193.481 16.663C192.828 16.9639 191.641 17.2648 190.869 17.2648C190.038 17.2648 189.207 17.5056 189.029 17.8666C188.85 18.1675 188.079 18.4684 187.426 18.4684C186.713 18.4684 185.704 18.8295 185.229 19.2508C184.695 19.7322 183.329 20.3942 182.201 20.8155C179.055 22.0191 178.045 22.4404 174.186 24.1857C167.122 27.4354 162.253 29.7825 159.938 30.9861C158.632 31.7083 155.307 33.4536 152.517 34.8979C144.027 39.3513 141.831 40.6753 133.816 46.0916C129.601 48.9201 125.861 51.3875 125.504 51.5079C125.208 51.6282 124.792 51.9291 124.614 52.1097C124.317 52.5309 119.211 56.1418 117.43 57.2853C116.896 57.5862 114.878 59.2111 112.918 60.8962C110.959 62.5211 107.516 65.4097 105.319 67.2151C103.063 69.0206 99.4418 72.2704 97.1858 74.3767C94.9892 76.5433 92.3176 78.8301 91.3677 79.4921C90.4178 80.2143 89.4679 81.2374 89.2305 81.779C89.0524 82.3808 88.6368 82.8622 88.34 82.8622C87.865 82.8622 81.2751 89.1813 81.2751 89.6627C81.2751 89.7831 79.7316 91.5284 77.8318 93.4542C72.6074 98.9908 65.6019 107.296 61.6836 112.652C60.5556 114.156 59.0714 116.022 58.4184 116.744C57.7653 117.466 56.5779 119.031 55.7468 120.235C54.9156 121.438 52.9565 124.387 51.2942 126.794C49.6912 129.202 48.0883 131.609 47.7321 132.151C47.4352 132.692 46.0104 134.799 44.5856 136.845C43.2201 138.891 42.0921 140.877 42.0921 141.298C42.0921 141.719 41.6171 142.622 40.9641 143.284C40.3704 144.006 39.183 145.812 38.3519 147.376C37.5207 148.881 36.1553 151.228 35.3241 152.612C34.493 153.936 33.7805 155.441 33.7805 155.922C33.7805 156.404 33.4837 157.005 33.1275 157.246C32.7713 157.487 31.6433 159.413 30.6934 161.639C29.7435 163.806 28.0812 167.477 26.9532 169.824C25.8846 172.111 24.2816 175.662 23.3911 177.648C22.5599 179.634 21.61 181.74 21.2538 182.282C20.957 182.883 20.7195 183.726 20.7195 184.147C20.7195 184.809 18.701 189.443 17.0981 192.512C16.8012 193.114 16.5637 194.137 16.5637 194.799C16.5637 195.521 15.9107 197.507 15.1389 199.192C14.4265 200.938 13.4172 203.526 13.061 205.03C12.6454 206.535 11.9924 208.821 11.6362 210.145C11.28 211.469 10.805 212.854 10.5675 213.154C9.79576 214.238 8.72713 218.992 7.12419 228.2C6.82735 230.186 6.11493 233.436 5.52125 235.422C4.39325 239.514 3.7402 243.305 2.90904 250.768C2.6122 253.596 2.07789 258.05 1.72168 260.698C0.237473 271.831 0 275.863 0 289.885C0 303.908 0.178105 307.278 1.72168 316.365C2.07789 318.532 2.6122 322.022 2.90904 324.189C3.9183 331.651 4.57136 334.72 5.81809 338.271C6.53051 340.257 7.06482 342.363 7.06482 343.025C7.06482 343.687 7.30229 345.072 7.59914 346.095C7.89598 347.118 8.48966 349.465 8.84587 351.27C9.26145 353.076 9.9145 355.363 10.3301 356.386C11.28 358.673 12.1111 361.14 13.0016 364.51C13.4172 366.015 14.3671 368.602 15.1389 370.348C15.9107 372.033 16.5637 374.019 16.5637 374.681C16.5637 375.343 16.8606 376.065 17.1574 376.245C17.5136 376.426 17.7511 377.148 17.7511 377.81C17.7511 378.472 18.1073 379.616 18.5823 380.338C19.0572 381.06 20.0071 383.407 20.7195 385.574C21.3726 387.74 22.5006 390.448 23.1536 391.652C23.7473 392.855 24.2816 394.179 24.2816 394.541C24.2816 394.962 25.1721 397.188 26.3001 399.596C28.7936 404.952 30.2184 408.202 30.2184 408.683C30.2184 408.864 31.4058 411.572 32.89 414.701C34.3742 417.891 35.5616 420.659 35.5616 420.9C35.5616 421.201 36.0959 422.043 36.7489 422.886C37.402 423.728 37.9363 424.812 37.9363 425.353C37.9363 425.835 38.8268 427.761 39.8955 429.566C40.9047 431.371 42.1515 433.899 42.6264 435.223C43.1013 436.547 44.0512 438.413 44.7043 439.436C45.4167 440.399 47.3165 443.949 48.8601 447.259C50.463 450.569 52.2441 454.24 52.8377 455.384C53.4314 456.527 54.7375 459.175 55.7468 461.221C56.756 463.267 57.8247 465.133 58.1809 465.374C58.5371 465.554 59.3682 466.999 59.9619 468.503C60.615 470.068 61.3868 471.452 61.6242 471.633C62.0398 471.934 65.0676 477.41 68.0954 483.368C68.9265 484.993 69.8171 486.497 70.0545 486.678C70.292 486.858 71.4794 488.905 72.6667 491.191C73.9135 493.539 75.3977 496.126 75.9914 497.029C76.6444 497.872 77.1194 498.714 77.1194 498.834C77.1194 499.316 82.8187 508.764 84.1248 510.449C84.8372 511.352 85.4309 512.375 85.4309 512.676C85.4309 512.917 86.3214 514.482 87.3307 516.106C88.3993 517.671 90.3585 520.801 91.6646 523.027C92.9707 525.194 94.8705 528.263 95.8204 529.828C96.8296 531.392 98.1357 533.619 98.8481 534.823C99.5012 535.966 101.401 538.915 103.004 541.383C104.607 543.79 106.21 546.257 106.507 546.739C106.863 547.28 108.822 550.289 110.959 553.479C113.097 556.608 115.471 560.46 116.243 562.025C117.015 563.589 118.262 565.455 119.033 566.177C119.805 566.899 120.458 567.802 120.458 568.043C120.458 568.344 121.646 570.33 123.13 572.376C124.614 574.482 125.801 576.408 125.801 576.649C125.801 576.889 126.751 578.153 127.879 579.537C129.007 580.861 129.957 582.306 129.957 582.727C129.957 583.148 130.195 583.57 130.432 583.69C130.966 583.87 131.798 585.014 136.309 592.055C139.99 597.712 141.296 599.578 143.731 602.707C144.977 604.212 146.402 606.378 146.877 607.401C147.352 608.424 148.183 609.628 148.658 610.049C149.192 610.531 150.024 611.674 150.558 612.697C151.092 613.72 151.864 614.804 152.22 615.165C152.636 615.466 155.07 618.836 157.623 622.567C160.235 626.358 162.847 630.15 163.5 631.113C164.153 632.015 165.816 634.362 167.122 636.348C168.487 638.274 170.031 640.26 170.565 640.681C171.099 641.103 171.515 641.825 171.515 642.186C171.515 642.547 172.465 643.871 173.593 645.075C174.721 646.278 175.671 647.482 175.671 647.783C175.671 648.024 176.621 649.348 177.749 650.611C178.877 651.935 179.826 653.38 179.826 653.801C179.826 654.222 180.064 654.583 180.301 654.583C180.598 654.583 181.133 655.185 181.489 655.907C181.786 656.69 182.617 657.953 183.329 658.796C183.982 659.639 185.288 661.324 186.179 662.527C187.069 663.731 190.631 668.425 194.075 672.999C197.518 677.512 201.199 682.568 202.327 684.313C203.396 685.998 204.524 687.502 204.702 687.683C204.939 687.864 205.77 688.947 206.542 690.09C207.314 691.234 208.501 692.738 209.154 693.4C209.867 694.062 210.935 695.386 211.529 696.409C212.182 697.372 213.191 698.576 213.785 698.997C214.379 699.418 214.854 700.08 214.854 700.441C214.854 700.802 215.566 701.946 216.516 702.969C217.407 704.052 218.653 705.617 219.306 706.58C222.393 710.913 225.243 714.644 226.965 716.69C227.974 717.894 230.824 721.505 233.258 724.755C235.692 727.944 238.245 731.194 238.898 731.916C239.551 732.638 240.441 733.902 240.916 734.805C241.391 735.708 241.985 736.43 242.222 736.43C242.46 736.43 244.597 739.078 246.972 742.267C249.347 745.517 252.374 749.489 253.74 751.114C255.046 752.799 256.471 754.544 256.827 755.026C257.243 755.567 258.608 757.132 259.795 758.516C261.042 759.961 263.061 762.368 264.248 763.932C265.495 765.557 267.81 768.566 269.472 770.733C273.45 775.909 275.35 778.256 277.487 780.603C278.496 781.686 279.565 782.95 279.862 783.491C281.227 785.538 287.58 793 287.995 793C288.47 793 292.745 788.426 293.101 787.584C293.22 787.343 294.585 785.658 296.248 783.913C297.91 782.107 301.888 777.413 305.093 773.441C308.299 769.469 311.802 765.377 312.752 764.294C313.761 763.21 314.592 762.187 314.592 761.947C314.592 761.766 316.492 759.479 318.748 756.891C321.004 754.304 322.904 752.077 322.904 751.896C322.904 751.656 323.498 750.873 324.269 750.091C324.982 749.308 326.407 747.623 327.475 746.299C328.485 745.036 330.028 743.11 330.859 742.087C331.69 741.003 332.403 739.98 332.403 739.74C332.403 739.559 334.184 737.272 336.44 734.624C341.011 729.208 342.733 727.041 347.126 721.144C348.907 718.797 351.104 716.028 352.054 715.065C353.004 714.042 353.775 712.959 353.775 712.718C353.775 712.478 355.022 710.732 356.625 708.867C358.169 707.001 359.593 705.196 359.89 704.835C362.503 701.284 366.48 696.048 367.668 694.604C368.499 693.581 369.745 691.956 370.517 690.993C371.23 689.97 372.001 689.067 372.239 688.887C372.417 688.706 373.367 687.382 374.257 685.878C375.148 684.373 376.751 682.206 377.76 681.003C378.769 679.799 380.729 677.211 382.153 675.286C383.519 673.3 385.775 670.351 387.022 668.726C388.328 667.041 390.465 664.152 391.771 662.287C393.077 660.421 394.383 658.736 394.74 658.495C395.036 658.315 395.689 657.291 396.224 656.208C396.699 655.125 398.064 653.199 399.192 651.875C400.32 650.551 401.27 649.167 401.27 648.806C401.27 648.505 402.22 647.301 403.348 646.158C404.476 645.015 405.426 643.811 405.426 643.45C405.426 643.089 406.257 642.005 407.207 641.043C408.216 640.08 408.988 638.996 408.988 638.575C408.988 638.214 409.403 637.492 409.938 637.071C410.472 636.649 411.778 634.904 412.906 633.219C417.121 626.84 420.683 621.785 426.501 613.66C427.155 612.757 429.054 610.049 430.657 607.582C432.32 605.175 434.16 602.466 434.813 601.624C436 600.059 441.997 591.092 444.312 587.421C445.618 585.375 448.052 581.764 452.92 574.723C454.701 572.135 456.482 569.547 456.779 569.006C457.136 568.524 458.323 566.598 459.451 564.853C460.638 563.048 461.885 560.941 462.301 560.099C463.013 558.715 465.269 555.224 466.456 553.78C466.753 553.419 468.534 550.65 470.493 547.641C472.393 544.572 475.599 539.637 477.558 536.568C479.517 533.559 482.011 529.406 483.079 527.36C484.148 525.374 485.276 523.569 485.573 523.509C485.929 523.388 486.167 523.027 486.167 522.666C486.167 522.365 487.354 520.199 488.838 517.912C490.322 515.625 491.51 513.519 491.51 513.218C491.51 512.977 492.46 511.533 493.588 510.088C494.716 508.644 495.665 507.26 495.665 507.019C495.665 506.778 496.615 505.093 497.743 503.288C498.871 501.482 499.821 499.858 499.821 499.677C499.821 499.496 500.712 497.932 501.78 496.186C502.849 494.441 504.096 492.154 504.571 491.191C505.046 490.168 505.877 488.724 506.411 487.882C506.945 487.039 508.014 485.173 508.845 483.669C514.188 473.98 516.86 469.165 517.75 467.661C518.344 466.698 519.591 464.29 520.6 462.365C521.55 460.379 522.737 458.393 523.153 457.851C523.628 457.309 524.34 455.925 524.756 454.782C525.528 452.796 529.802 444.19 533.305 437.751C534.136 436.186 534.849 434.501 534.849 434.08C534.849 433.658 535.383 432.575 536.095 431.672C536.748 430.83 537.817 428.723 538.411 427.038C538.945 425.353 539.895 423.427 540.429 422.826C540.964 422.164 541.379 421.441 541.379 421.141C541.379 420.659 542.685 417.59 543.813 415.484C545.297 412.655 545.594 411.993 547.613 406.637C548.147 405.132 549.394 402.304 550.284 400.318C551.175 398.332 552.125 396.045 552.362 395.203C552.6 394.36 553.253 392.735 553.906 391.592C554.499 390.448 555.568 387.74 556.221 385.574C556.934 383.407 557.883 381.06 558.358 380.338C558.833 379.616 559.19 378.472 559.19 377.81C559.19 377.148 559.486 376.426 559.783 376.245C560.139 376.065 560.377 375.343 560.377 374.681C560.377 374.019 561.03 372.033 561.802 370.348C562.574 368.602 563.523 366.015 563.939 364.51C564.77 361.381 565.601 358.733 566.314 356.987C567.323 354.52 568.214 351.511 568.748 348.562C570.232 341.1 570.41 340.016 570.826 338.331C571.063 337.308 571.479 336.225 571.776 335.804C572.31 335.082 572.844 332.313 574.032 323.888C574.388 321.541 574.922 318.05 575.219 316.064C577.594 301.621 577.594 278.271 575.219 260.698C574.863 258.05 574.328 253.596 574.032 250.768C573.26 243.004 572.429 237.708 571.894 236.866C571.419 236.083 570.885 233.616 569.816 227.598C568.51 220.316 568.154 218.511 567.501 215.863C567.145 214.418 566.611 212.914 566.373 212.553C566.136 212.252 565.601 210.747 565.186 209.243C564.77 207.738 564.176 205.692 563.88 204.669C563.583 203.646 563.345 202.502 563.345 202.141C563.345 201.72 562.692 200.035 561.861 198.29C561.03 196.605 560.377 194.559 560.377 193.836C560.377 193.054 560.139 192.272 559.783 192.091C559.486 191.911 559.19 191.249 559.19 190.587C559.19 189.985 558.536 188.3 557.705 186.916C556.874 185.471 556.221 183.906 556.221 183.545C556.221 183.124 555.449 181.018 554.44 178.851C553.49 176.685 552.659 174.759 552.659 174.578C552.659 174.217 547.375 162.783 545.416 158.991C541.023 150.265 537.283 143.645 536.214 142.562C535.798 142.141 535.027 140.757 534.433 139.553C533.899 138.349 532.889 136.484 532.236 135.521C531.524 134.498 530.693 133.294 530.396 132.752C527.487 128.058 522.975 121.499 522.203 120.837C521.669 120.415 521.194 119.753 521.194 119.452C521.194 119.151 520.422 117.888 519.413 116.684C518.463 115.48 515.613 111.87 513.179 108.74C500.356 92.4913 480.111 72.3907 463.607 59.6925C461.885 58.3685 460.163 56.9844 459.807 56.6835C459.392 56.3224 458.679 55.7808 458.145 55.4799C457.61 55.1188 455.236 53.4939 452.92 51.869C450.546 50.1839 447.755 48.3183 446.746 47.6563C442.947 45.249 437.781 41.7585 437.485 41.3373C437.307 41.1567 435.941 40.3744 434.397 39.592C432.913 38.8699 431.31 37.8467 430.954 37.3653C430.539 36.944 429.945 36.5228 429.648 36.5228C429.351 36.5228 426.798 35.3192 423.949 33.8748C421.099 32.4305 417.834 30.8055 416.706 30.2037C414.509 29.1807 413.678 28.7594 410.353 26.8336C409.285 26.2318 407.86 25.6902 407.207 25.6902C406.613 25.6902 405.96 25.4495 405.782 25.1486C405.604 24.8477 403.645 23.8847 401.448 22.982C399.192 22.0793 396.58 20.996 395.63 20.5146C389.278 17.7463 388.031 17.2648 387.259 17.2648C386.784 17.2648 385.3 16.7232 383.875 16.1213C381.441 14.9779 378.176 13.9548 372.773 12.5105C370.102 11.7883 361.612 9.26068 358.169 8.23761C357.159 7.87653 355.794 7.6358 355.082 7.6358C354.428 7.6358 352.291 7.21454 350.391 6.67291C345.879 5.40912 339.23 4.14532 333.293 3.36298C330.681 3.06207 326.941 2.52045 324.982 2.15936C315.305 0.534424 277.368 -0.669189 270.066 0.414062ZM310.14 48.2581C314.652 48.7997 318.57 49.3414 318.926 49.5821C319.282 49.7626 321.538 50.1839 324.032 50.4246C333.65 51.4477 340.239 52.6513 341.842 53.6143C342.199 53.855 343.92 54.3364 345.642 54.6373C354.31 56.3224 358.465 57.4056 365.055 59.9332C366.836 60.6554 368.796 61.1971 369.33 61.1971C369.924 61.1971 370.873 61.4378 371.467 61.7387C373.842 63.0627 379.304 65.4097 379.957 65.4097C380.313 65.4097 381.619 65.9514 382.806 66.5532C383.994 67.2151 385.894 68.1179 387.022 68.5994C389.812 69.7428 391.89 70.7057 392.958 71.3677C393.849 71.9093 394.502 72.2102 404.476 77.3858C407.741 79.0709 410.531 80.6957 410.71 80.9365C410.888 81.1772 412.134 81.8994 413.44 82.5012C414.747 83.103 416.35 84.0659 417.003 84.6677C417.656 85.2695 419.021 86.2324 420.03 86.8944C423.771 89.1211 428.758 92.6116 430.242 93.9958C431.132 94.8383 432.082 95.5003 432.379 95.5003C432.676 95.5003 433.863 96.3428 435.051 97.3659C436.238 98.3289 440.275 101.819 444.015 105.009C452.386 112.11 466.338 126.253 473.106 134.498C481.477 144.668 481.655 144.909 486.463 152.131C488.126 154.598 489.907 157.126 490.5 157.728C491.035 158.39 491.51 159.112 491.51 159.413C491.51 159.653 492.46 161.218 493.588 162.843C494.716 164.408 495.665 165.972 495.665 166.213C495.665 166.454 496.615 167.958 497.743 169.523C498.871 171.088 499.821 172.713 499.821 173.074C499.821 173.435 500.474 174.819 501.246 176.083C502.077 177.347 503.324 179.754 504.036 181.319C504.749 182.944 506.471 186.675 507.836 189.684C511.339 197.206 511.992 198.831 513.476 202.924C514.188 204.91 515.198 207.497 515.673 208.641C516.207 209.784 516.801 211.53 517.097 212.553C517.335 213.516 518.285 216.645 519.235 219.474C521.134 224.95 522.381 229.704 522.381 231.389C522.381 231.931 522.737 233.074 523.153 233.917C524.281 236.083 525.231 240.958 526.537 250.467C526.834 252.754 527.487 257.628 527.962 261.299C528.496 264.91 529.268 273.215 529.743 279.715C530.455 289.825 530.515 292.714 529.802 300.176C529.327 304.931 528.556 311.009 528.021 313.657C527.546 316.305 526.834 320.096 526.537 322.082C525.409 329.124 524.044 334.961 523.272 336.225C522.856 336.947 522.263 338.993 521.194 343.447C520.956 344.59 520.006 347.419 519.116 349.766C518.225 352.053 517.335 354.821 517.097 355.784C516.86 356.807 516.207 358.552 515.673 359.696C515.138 360.839 514.129 363.547 513.476 365.714C512.764 367.88 511.814 370.288 511.398 371.13C510.923 371.973 510.033 374.259 509.32 376.245C508.608 378.231 507.717 380.278 507.302 380.759C506.945 381.24 506.233 382.745 505.817 384.069C504.571 388.101 502.018 393.939 497.922 402.304C496.675 404.771 495.665 407.118 495.665 407.54C495.665 407.961 495.012 409.225 494.181 410.428C493.41 411.632 492.4 413.678 491.985 415.002C491.51 416.266 490.738 417.951 490.144 418.733C489.551 419.516 486.998 424.39 484.445 429.506C481.892 434.621 479.161 440.037 478.33 441.542C477.499 443.047 475.777 446.116 474.59 448.463C473.343 450.75 471.859 453.398 471.206 454.3C470.612 455.143 470.137 456.106 470.137 456.407C470.137 456.647 469.187 458.333 468.059 460.018C466.931 461.763 465.981 463.448 465.981 463.869C465.981 464.23 465.091 465.795 464.022 467.36C462.894 468.864 461.469 471.392 460.757 472.957C460.045 474.461 459.213 475.905 458.917 476.146C458.56 476.327 457.848 477.53 457.314 478.734C456.72 479.938 455.711 481.743 454.998 482.766C454.286 483.729 453.277 485.534 452.683 486.678C452.149 487.821 450.783 490.048 449.774 491.613C448.705 493.177 447.102 495.825 446.093 497.571C445.143 499.256 443.778 501.362 443.125 502.205C442.472 503.107 441.106 505.334 440.216 507.139C439.266 508.945 437.96 511.111 437.366 511.954C435.347 514.722 430.954 521.583 430.954 522.004C430.954 522.245 430.479 522.967 429.826 523.629C429.232 524.351 427.986 526.217 427.095 527.902C426.205 529.527 424.839 531.573 424.067 532.476C423.296 533.318 422.643 534.281 422.643 534.582C422.643 534.943 422.108 535.726 421.515 536.448C420.862 537.11 419.496 539.276 418.427 541.202C417.359 543.188 416.231 544.993 415.875 545.355C415.459 545.655 414.509 547.04 413.737 548.364C412.906 549.688 410.591 553.178 408.572 556.187C406.494 559.136 403.942 562.867 402.932 564.492C401.864 566.057 400.083 568.464 399.073 569.908C398.005 571.293 397.114 572.677 397.114 573.038C397.114 573.339 395.808 575.325 394.265 577.371C388.684 584.833 387.615 586.398 387.615 587C387.615 587.361 387.2 587.963 386.725 588.384C385.953 589.046 383.638 592.236 375.326 604.212C374.554 605.295 372.951 607.582 371.764 609.387C370.517 611.193 368.855 613.48 368.024 614.503C367.193 615.526 366.302 616.79 365.946 617.331C365.649 617.873 364.224 619.799 362.859 621.544C357.219 628.946 355.735 630.932 353.894 633.881C352.826 635.566 351.46 637.432 350.807 638.034C350.154 638.635 349.62 639.357 349.62 639.658C349.62 640.14 344.276 647.181 341.724 650.01C341.189 650.672 340.714 651.394 340.714 651.634C340.714 651.875 339.705 653.32 338.518 654.824C337.271 656.268 334.956 659.338 333.293 661.625C330.562 665.476 328.663 667.883 324.922 672.397C324.091 673.36 323.082 674.804 322.726 675.466C322.31 676.188 320.232 679.017 318.036 681.785C315.839 684.493 313.168 687.924 312.099 689.368C311.03 690.752 309.19 693.099 308.062 694.544C306.934 695.988 303.669 700.14 300.819 703.751C297.969 707.362 295.12 710.793 294.467 711.394C293.754 712.056 293.22 712.899 293.22 713.32C293.22 713.982 289.42 717.774 288.767 717.774C288.411 717.774 284.908 713.862 282.237 710.552C281.049 709.047 279.684 707.362 279.209 706.76C278.734 706.219 278.378 705.557 278.378 705.376C278.378 705.075 272.797 698.094 269.472 694.303C268.463 693.159 267.157 691.474 266.623 690.572C264.664 687.442 259.202 680.461 258.727 680.461C258.43 680.461 258.193 680.1 258.193 679.679C258.193 679.258 257.48 678.114 256.59 677.031C255.64 676.008 253.859 673.781 252.553 672.036C251.246 670.291 248.99 667.342 247.506 665.476C246.022 663.611 244.419 661.384 244.004 660.421C243.529 659.518 242.935 658.796 242.697 658.796C242.46 658.796 241.688 657.833 240.976 656.69C240.263 655.486 239.373 654.222 238.957 653.801C238.542 653.44 237.295 651.815 236.167 650.31C235.039 648.806 232.13 644.894 229.696 641.644C227.262 638.455 225.006 635.325 224.649 634.844C223.937 633.7 217.347 624.613 213.429 619.377C211.945 617.391 210.698 615.646 210.698 615.466C210.698 615.285 209.511 613.66 208.026 611.855C206.542 610.049 205.355 608.184 205.355 607.823C205.355 607.401 205.117 607.04 204.761 607.04C204.464 607.04 202.921 605.114 201.377 602.707C199.834 600.36 197.756 597.231 196.746 595.847C190.513 586.88 187.663 582.968 185.941 580.922C184.873 579.598 183.982 578.213 183.982 577.852C183.982 577.431 183.448 576.649 182.795 576.047C182.082 575.385 181.133 574.061 180.658 572.978C180.183 571.894 178.817 569.969 177.689 568.645C176.561 567.321 175.671 565.997 175.671 565.756C175.671 565.515 174.958 564.372 174.068 563.228C173.118 562.025 171.752 559.918 170.921 558.534C170.09 557.15 168.19 554.382 166.647 552.336C165.044 550.289 163.797 548.484 163.797 548.303C163.797 548.123 162.61 546.257 161.125 544.211C159.641 542.105 158.454 540.179 158.394 539.878C158.394 539.577 156.91 537.29 155.189 534.823C153.408 532.355 151.211 529.106 150.32 527.601C149.43 526.097 148.124 524.111 147.352 523.208C146.58 522.245 145.987 521.162 145.987 520.74C145.987 520.319 145.512 519.477 144.918 518.815C143.552 517.25 140.643 512.676 140.643 512.074C140.643 511.773 140.109 511.051 139.456 510.449C138.862 509.908 137.616 508.042 136.725 506.297C135.894 504.612 134.825 502.806 134.41 502.325C133.994 501.844 133.104 500.459 132.451 499.316C130.195 495.224 127.048 489.988 126.454 489.266C126.098 488.905 125.267 487.52 124.555 486.317C123.902 485.053 122.714 483.248 122.002 482.224C121.289 481.201 120.339 479.516 119.864 478.553C119.39 477.53 118.44 475.905 117.787 474.943C117.074 473.919 115.768 471.633 114.878 469.707C113.987 467.841 112.74 465.855 112.087 465.253C111.494 464.712 110.959 463.869 110.959 463.388C110.959 462.485 109.891 460.439 108.585 458.754C108.11 458.152 107.041 456.347 106.21 454.722C105.379 453.157 103.123 448.884 101.163 445.333C99.2043 441.783 97.4233 438.413 97.2452 437.931C97.0077 437.389 96.414 436.607 95.8797 436.186C95.3454 435.765 94.9298 434.982 94.9298 434.501C94.9298 433.718 94.2768 432.214 92.3176 428.603C89.7648 423.789 82.6406 409.526 78.7223 401.221C72.9042 388.883 71.7762 386.296 71.7762 385.634C71.7762 385.273 71.5387 384.49 71.2419 383.888C70.0545 381.541 67.7392 376.125 67.0268 374.139C66.6705 372.996 65.9581 371.311 65.4832 370.408C65.0082 369.505 64.0583 367.038 63.4053 364.992C62.7522 362.885 61.743 360.117 61.1493 358.793C60.5556 357.469 59.6057 354.761 59.012 352.775C58.4184 350.789 57.7059 348.863 57.5278 348.562C57.1716 347.96 56.4592 345.493 55.0937 340.257C54.7375 338.873 54.0845 336.767 53.6095 335.623C52.3034 332.193 51.3535 327.559 49.5131 316.365C48.9788 313.236 48.2664 309.685 47.9695 308.542C47.0197 305.171 46.6634 284.89 47.3759 276.345C47.9695 269.304 48.5039 264.97 50.4036 251.069C51.7097 241.68 52.719 236.625 53.6095 235.241C53.7876 234.88 54.2626 233.315 54.6188 231.69C54.9156 230.126 55.4499 227.718 55.7468 226.394C56.3405 223.626 60.0213 212.613 61.3274 209.664C61.8023 208.641 62.6335 206.354 63.1678 204.729C63.7021 203.044 64.8895 200.035 65.8394 197.989C66.8486 195.943 67.6204 193.957 67.6204 193.535C67.6204 193.114 68.2735 191.911 69.1046 190.827C69.9358 189.744 70.5888 188.54 70.5888 188.24C70.5888 187.457 70.6482 187.277 75.0415 178.55C76.9413 174.759 79.1379 170.787 79.9097 169.764C80.6814 168.741 81.2751 167.718 81.2751 167.477C81.2751 167.236 83.0562 164.227 85.2528 160.917C87.5088 157.547 89.4086 154.538 89.5273 154.177C89.8242 153.455 98.67 141.659 101.282 138.53C102.41 137.206 104.013 135.22 104.904 134.076C107.635 130.646 132.866 105.129 133.579 105.129C133.935 105.129 135.122 104.227 136.191 103.083C137.259 101.94 138.922 100.556 139.812 99.8936C140.762 99.2917 143.731 97.1252 146.402 95.079C149.133 92.9727 151.567 91.2877 151.805 91.2877C152.101 91.2877 152.814 90.746 153.408 90.084C154.001 89.422 155.842 88.098 157.504 87.075C159.166 86.0519 162.135 84.1261 164.094 82.8021C166.053 81.5383 169.793 79.3718 172.405 78.0478C175.018 76.784 178.58 74.8582 180.301 73.8351C182.023 72.8722 183.863 72.0297 184.279 72.0297C184.754 72.0297 185.17 71.8491 185.17 71.5482C185.17 71.127 186.476 70.465 191.106 68.6595C192.591 68.0577 194.668 67.0948 195.737 66.493C196.806 65.8912 198.052 65.4097 198.527 65.4097C199.062 65.4097 199.893 65.169 200.487 64.8079C203.277 63.2432 208.086 61.1971 209.036 61.1971C209.629 61.1971 210.579 60.9564 211.173 60.6554C211.707 60.4147 213.132 59.8129 214.26 59.4518C221.859 56.7437 223.403 56.3224 229.399 55.179C231.358 54.8179 233.792 54.2161 234.742 53.9152C239.254 52.2902 244.716 51.2672 252.256 50.6052C254.037 50.4246 256.471 50.0635 257.599 49.7025C265.257 47.4156 295.416 46.6332 310.14 48.2581Z" fill="#FFC668"/>
<path d="M410.531 143.164C407.207 143.886 402.457 147.738 399.073 152.432C391.237 163.385 386.903 167.417 375.504 174.277L368.558 178.43L364.759 177.347C359.119 175.722 354.013 175.301 348.67 176.143C343.267 176.986 339.646 178.43 332.106 182.703L326.822 185.712L324.032 183.064C317.798 177.106 314.592 176.564 288.886 176.865C270.363 177.106 269.651 177.166 266.267 178.55C264.367 179.333 261.398 181.259 259.736 182.823L256.649 185.652L251.068 182.402C244.003 178.31 240.323 176.865 234.505 176.083C229.458 175.361 224.293 175.722 219.959 177.166C216.16 178.43 214.141 177.949 208.561 174.639C198.468 168.62 192.65 163.385 186.535 155.02C179.589 145.451 175.493 142.622 169.615 143.164C166.29 143.525 163.144 145.752 161.304 149.062C160.294 150.867 160.176 152.071 160.413 157.487C160.71 164.949 162.61 171.389 167.597 181.86C170.802 188.661 176.383 198.831 182.32 208.822C184.279 212.071 184.398 212.493 183.863 214.84C182.498 220.737 185.348 228.079 190.988 233.436C196.984 239.093 210.401 248.661 225.659 258.05C229.993 260.758 233.733 263.225 233.97 263.647C234.623 264.67 234.564 266.415 233.852 266.415C231.833 266.415 218.653 275.442 208.026 284.108L206.601 285.252L199.002 282.182C184.457 276.285 180.479 275.502 164.925 275.442C145.868 275.442 134.41 277.488 123.783 282.844C116.243 286.576 113.69 290.006 113.809 296.205C113.868 304.088 120.636 316.305 128.651 322.985C130.432 324.49 132.451 326.175 133.104 326.837C135.122 328.522 141.712 331.711 146.283 333.216C151.448 334.841 162.61 335.443 169.674 334.48C172.405 334.119 177.274 332.975 180.539 331.952C183.804 330.929 186.594 330.207 186.713 330.387C186.832 330.508 186.416 333.216 185.763 336.466C183.151 349.465 182.795 365.293 184.873 378.051C186.06 385.393 188.435 395.263 190.156 400.017C193.481 409.104 196.034 415.544 197.221 417.891C200.665 424.511 207.314 436.607 208.264 437.931C208.857 438.774 211.054 442.264 213.073 445.755C215.091 449.245 217.763 453.699 218.95 455.685C222.215 460.981 224.531 467.179 224.174 469.767C224.056 470.971 223.106 475.304 222.037 479.396C219.484 489.446 218.831 495.344 219.128 507.079C219.366 515.866 219.544 517.43 220.731 520.018C223.165 525.194 225.481 528.383 229.814 532.536C235.217 537.712 239.373 540.299 247.684 543.609C257.955 547.762 264.723 549.327 274.756 549.868C286.749 550.53 306.637 550.049 312.811 548.965C324.447 546.919 338.399 540.841 345.523 534.642C351.282 529.647 353.3 527.12 356.031 521.643L358.228 517.13L358.465 507.26C358.703 495.464 357.931 488.544 355.438 479.035C354.428 475.123 353.479 470.971 353.36 469.827C353.004 467.239 354.725 462.545 358.05 456.768C364.58 445.514 368.321 439.255 369.508 437.63C370.22 436.607 371.942 433.658 373.367 431.01C377.166 423.789 378.769 420.84 379.304 420.178C380.016 419.215 385.122 406.878 386.072 403.748C386.547 402.184 387.318 399.957 387.793 398.813C389.278 395.263 392.424 380.879 393.315 373.537C394.739 361.321 394.265 349.284 391.83 336.406C391.237 333.336 390.881 330.688 390.999 330.568C391.118 330.448 393.552 331.11 396.402 332.073C403.645 334.42 410.769 335.262 419.971 334.841C428.52 334.48 431.785 333.697 438.613 330.327C454.998 322.263 467.941 300.477 462.538 290.126C460.341 285.853 454.642 282.242 445.202 279.173C436.238 276.285 431.251 275.743 413.44 275.743C394.68 275.743 394.205 275.803 380.55 281.28C370.933 285.071 370.755 285.131 369.449 284.048C363.571 279.233 353.419 271.711 350.926 270.266C349.204 269.304 347.839 268.341 347.839 268.16C347.839 267.137 349.679 263.586 350.629 262.744C351.223 262.202 354.785 259.915 358.525 257.689C366.183 253.055 379.541 244.148 384.944 240.056C396.521 231.269 400.676 224.469 399.845 215.742L399.43 211.59L402.635 206.354C404.417 203.465 406.791 199.493 407.979 197.507C411.659 191.249 418.843 176.083 420.743 170.727C423.83 161.7 424.483 153.334 422.286 149.001C421.218 146.835 417.596 143.705 415.637 143.284C414.747 143.104 413.797 142.863 413.44 142.803C413.144 142.682 411.778 142.863 410.531 143.164ZM177.274 159.052C180.005 162.663 183.745 167.056 185.585 168.801C189.919 172.773 197.696 178.43 203.692 181.981C207.848 184.388 208.264 184.809 207.551 185.712C205.414 188.781 190.988 203.345 190.572 202.864C188.494 200.637 178.52 181.68 174.78 173.014C172.999 168.741 170.921 161.7 170.565 158.45C170.09 154.719 170.624 151.89 171.693 152.251C172.109 152.372 174.602 155.441 177.274 159.052ZM412.847 156.945C412.787 162.001 411.719 165.973 408.216 174.338C404.654 182.823 394.383 202.021 392.958 202.924C392.721 203.104 390.524 201.118 388.09 198.531C378.235 188.119 375.742 185.351 375.742 184.809C375.742 184.508 376.988 183.606 378.532 182.763C385.894 178.851 396.461 170.907 400.676 166.153C401.804 164.829 404.713 161.158 407.147 157.908C409.522 154.658 411.778 152.131 412.194 152.251C412.609 152.372 412.847 154.117 412.847 156.945ZM237.532 185.17C239.313 185.832 243.529 188.119 246.913 190.225C252.553 193.716 253.146 194.258 253.027 195.762C252.909 197.447 246.616 217.488 240.679 235.121C238.957 240.236 237.117 245.953 236.582 247.759C235.039 252.994 234.92 253.115 231.952 251.43C218.475 243.847 200.249 230.427 196.746 225.552C194.431 222.362 193.6 218.571 194.55 215.381C195.678 211.65 218.653 187.096 222.868 185.11C226.193 183.545 233.377 183.545 237.532 185.17ZM360.603 185.17C363.571 186.615 383.281 206.595 388.09 213.094C389.812 215.381 389.871 219.955 388.15 223.445C386.547 226.936 381.085 231.931 372.18 238.19C363.868 244.027 350.332 252.573 349.323 252.573C348.967 252.573 346.889 247.097 344.692 240.356C334.659 209.845 330.028 195.16 330.266 194.498C330.622 193.415 342.852 186.254 346.295 185.05C350.569 183.545 357.456 183.606 360.603 185.17ZM313.286 186.013C314.177 186.494 315.423 187.517 316.136 188.3C316.908 189.142 320.292 198.711 324.982 213.155C329.138 226.033 334.006 240.958 335.727 246.254C337.449 251.55 339.052 256.966 339.23 258.351C340.18 264.068 336.262 267.739 326.822 270.086C321.598 271.41 320.529 271.47 291.736 271.53C262.764 271.53 261.933 271.47 256.708 270.146C250.89 268.642 246.319 266.054 245.25 263.707C243.825 260.517 244.003 259.675 251.425 235.422C255.521 222.182 266.504 189.804 267.395 188.42C269.354 185.351 270.541 185.23 291.914 185.17C307.765 185.17 311.98 185.351 313.286 186.013ZM251.484 277.368C256.055 278.752 256.59 278.752 290.845 278.752C317.798 278.752 326.525 278.571 329.731 277.909L333.946 277.127L338.34 279.354C358.584 289.705 370.042 304.69 375.207 327.739C379.66 347.419 379.541 346.516 379.541 359.997C379.482 371.431 379.363 373.297 377.938 379.555C375.682 389.726 374.198 395.203 372.12 400.438C369.864 406.156 361.671 423.247 360.187 425.293C359.593 426.136 357.575 429.385 355.675 432.575C353.835 435.765 350.807 440.94 348.967 444.009C347.126 447.139 343.98 452.615 342.08 456.286C340.121 459.897 337.805 464.17 336.915 465.735L335.312 468.624L337.39 472.054C338.518 473.98 340.002 477.591 340.714 480.058C341.427 482.525 342.199 485.053 342.495 485.595C343.327 487.159 344.217 493.358 344.633 501.001C345.048 507.561 344.989 507.862 343.92 507.561C339.29 506.116 336.499 505.816 331.928 506.116C329.078 506.297 326.347 506.598 325.872 506.778C325.101 507.14 324.982 502.024 324.982 463.087V418.974L323.023 411.151C320.173 400.017 316.73 389.967 313.049 382.083L309.902 375.283L311.386 374.621C314.355 373.236 315.186 370.769 315.186 363.307C315.186 357.469 315.008 356.265 313.939 354.52C313.286 353.377 311.98 352.293 311.149 351.992C310.258 351.752 299.928 351.571 288.173 351.571C268.404 351.571 266.623 351.631 265.079 352.654C262.348 354.46 261.576 357.288 261.873 364.631C262.051 370.769 262.17 371.13 263.832 372.875C264.782 373.898 265.91 374.741 266.326 374.741C267.395 374.741 267.335 374.861 265.317 378.954C260.33 388.944 254.868 406.095 252.553 418.974C251.721 423.728 251.662 429.626 251.781 465.795C251.959 506.959 251.959 507.2 250.771 506.899C246.319 505.635 239.907 505.876 233.614 507.501L231.892 507.922L232.308 502.265C233.198 490.048 235.395 480.901 239.195 473.197L241.569 468.443L237.77 461.462C235.692 457.61 232.961 452.615 231.774 450.268C230.586 447.981 227.915 443.347 225.896 440.038C217.347 426.136 214.735 421.502 210.698 413.257C206.305 404.23 201.852 392.193 200.605 385.874C200.249 383.888 199.359 379.977 198.646 377.148C197.637 372.815 197.399 370.167 197.399 359.997C197.399 351.872 197.637 347.058 198.171 345.252C198.587 343.748 199.418 339.956 200.012 336.827C203.099 320.337 206.898 309.926 213.073 300.718C216.694 295.362 225.065 287.839 232.961 282.844C236.048 280.858 245.606 276.044 246.438 276.044C246.675 276.044 248.99 276.646 251.484 277.368ZM178.045 290.548C182.795 291.27 189.028 293.075 193.956 295.121C197.578 296.686 197.696 296.746 197.281 298.552C197.103 299.514 196.153 302.042 195.203 304.088C194.253 306.134 193.481 308.12 193.481 308.421C193.481 310.889 186.832 314.861 176.739 318.411C165.756 322.203 153.17 321.962 145.037 317.689C138.091 314.018 129.245 303.968 127.939 298.191C127.582 296.686 127.82 296.385 130.551 295.001C139.219 290.548 163.144 288.321 178.045 290.548ZM433.626 291.33C441.64 292.714 449.358 295.663 449.358 297.348C449.358 299.755 445.202 306.195 440.75 310.648C433.151 318.411 427.867 320.578 416.587 320.578C408.216 320.578 403.882 319.675 395.63 316.245C385.419 312.032 385.656 312.273 381.025 300.477C380.194 298.431 380.016 297.348 380.491 296.806C381.738 295.302 393.908 291.39 400.32 290.487C405.604 289.705 427.333 290.307 433.626 291.33ZM308.537 363.126L308.715 368.121H288.47H268.285V363.427C268.285 360.839 268.463 358.492 268.701 358.312C268.938 358.071 277.903 357.95 288.708 358.011L308.359 358.191L308.537 363.126ZM303.075 377.329C308.062 385.092 313.167 398.753 316.967 414.28L318.748 421.682V462.726C318.748 510.149 319.045 507.38 313.286 510.69L310.14 512.556H288.708C265.673 512.556 265.376 512.496 261.873 509.306C258.311 506.116 258.489 508.283 258.608 462.726C258.727 417.891 258.608 419.155 262.111 406.938C265.851 393.879 270.719 381.782 274.044 377.269L275.469 375.343H288.648H301.828L303.075 377.329ZM311.624 519.176C311.624 519.356 311.327 520.56 310.971 521.824C310.615 523.148 310.14 526.518 309.962 529.346C309.546 534.341 309.546 534.462 307.765 534.943C303.016 536.267 271.847 536.448 268.76 535.124C268.048 534.823 267.691 534.04 267.691 532.777C267.691 530.911 266.207 521.764 265.614 519.838C265.317 518.875 267.216 518.815 288.47 518.815C301.175 518.815 311.624 518.995 311.624 519.176ZM250.653 522.064C252.137 523.509 253.443 526.939 253.443 529.587V531.152L250.356 529.768C243.885 526.879 237.829 522.004 239.076 520.68C239.313 520.44 241.688 520.379 244.36 520.5C248.397 520.62 249.406 520.921 250.653 522.064ZM338.043 520.981C338.636 521.884 337.39 523.208 333.353 525.916C329.494 528.504 327.416 529.647 325.457 530.249C324.269 530.61 324.091 530.49 324.151 528.985C324.21 526.036 325.635 523.148 327.653 521.703C329.197 520.68 330.444 520.379 333.65 520.379C335.846 520.379 337.865 520.68 338.043 520.981Z" fill="#E38751"/>
</svg>
